<?xml version="1.0" encoding="utf-8"?>
<!-- Generator: Adobe Illustrator 14.0.0, SVG Export Plug-In . SVG Version: 6.00 Build 43363)  -->
<!DOCTYPE svg PUBLIC "-//W3C//DTD SVG 1.1//EN" "http://www.w3.org/Graphics/SVG/1.1/DTD/svg11.dtd">
<svg version="1.1" id="Ebene_1" xmlns="http://www.w3.org/2000/svg" xmlns:xlink="http://www.w3.org/1999/xlink" x="0px" y="0px"
	 width="146px" height="27px" viewBox="0 0 108 20" xml:space="preserve">
<g>
	<path fill="#FF6600" d="M17.073,19.5V8.53L12.368,19.5H9.756L5.13,8.53V19.5H0.268V0.499h6.508l4.471,10.729l4.678-10.729h6.01
		V19.5H17.073z"/>
	<path fill="#FF6600" d="M25.674,19.5V0.499h4.156c0.366,0,0.728,0.366,0.728,0.76V19.5H25.674z"/>
	<path fill="#FF6600" d="M44.047,8.56h6.175c0.488,0,0.766,0.398,0.766,0.865v9.817c-1.739,0.387-4.453,0.625-6.473,0.625
		c-7.085,0-10.82-3.375-10.82-9.894c0-5.813,3.735-9.84,9.963-9.84c2.741,0,5.146,0.732,6.693,1.777l-1.914,3.269
		C47.1,4.58,45.295,4.16,44.021,4.16c-3.58,0-5.253,2.376-5.253,5.813c0,3.675,1.937,5.942,5.512,5.942
		c0.656,0,1.469-0.025,2.119-0.125v-3.35h-2.352V8.56z"/>
	<path fill="#FF6600" d="M65.426,19.5l-2.254-5.23c-0.461-1.064-0.782-1.594-1.76-1.594h-1.976V19.5h-4.775V1.259
		c0-0.394,0.433-0.76,0.743-0.76h6.743c3.662,0,6.802,0.76,6.802,5.492c0,2.117-1.173,4.286-3.37,4.725
		c1.095,0.372,2.197,1.778,2.796,3.3l2.172,5.484H65.426z M61.826,4.16h-2.39v4.765h2.39c1.428,0,2.551-0.762,2.551-2.567
		C64.377,4.525,63.254,4.16,61.826,4.16z"/>
	<path fill="#FF6600" d="M81.104,19.867c-6.222,0-9.513-4.395-9.513-9.894c0-5.448,3.291-9.84,9.513-9.84
		c5.826,0,9.121,4.392,9.121,9.84C90.225,15.473,86.93,19.867,81.104,19.867z M81.104,4.16c-2.563,0-4.387,1.831-4.387,5.813
		c0,4.042,1.823,5.866,4.387,5.866c2.197,0,3.996-1.824,3.996-5.866C85.1,5.991,83.301,4.16,81.104,4.16z"/>
	<path fill="#FF6600" d="M99.58,19.867c-3.211,0-6.195-1.152-7.525-2.066l2.165-3.84c1.208,0.73,3.558,1.855,5.726,1.855
		c1.227,0,2.776-0.238,2.776-1.6c0-1.279-1.731-1.672-4.003-2.32c-2.742-0.787-5.934-1.878-5.934-5.566
		c0-3.975,3.531-6.197,8.127-6.197c3.034,0,5.385,1.074,6.585,2.222l-2.637,3.003c-1.306-0.778-2.638-1.386-4.133-1.386
		c-1.801,0-2.819,0.684-2.819,1.678c0,0.986,1.307,1.489,2.951,1.983c2.906,0.896,6.873,1.813,6.873,5.62
		C107.732,17.174,104.599,19.867,99.58,19.867z"/>
</g>
</svg>
